<svg id="Layer_1" data-name="Layer 1" xmlns="http://www.w3.org/2000/svg" width="87.23" height="101.57" viewBox="0 0 87.23 101.57">
  <title>book</title>
  <g>
    <polygon points="33.79 92.66 31.2 94.58 36.4 94.58 33.79 92.66" fill="#66cdcc"/>
    <path d="M277.12,666H235.25v3.91h38A3.91,3.91,0,0,0,277.12,666Z" transform="translate(-189.89 -582.34)" fill="#66cdcc"/>
    <path d="M235.25,676.92h38a3.91,3.91,0,0,0,3.91-3.91H235.25v3.91Z" transform="translate(-189.89 -582.34)" fill="#66cdcc"/>
    <path d="M235.25,680.88a1.33,1.33,0,0,1-2.13,1.08l-2.66-2H216.94l-3.26,2.42a1.34,1.34,0,0,1-2.13-1.07V680h-7.33a1.54,1.54,0,0,1,0-3.08h7.33V673h-7.33a1.54,1.54,0,0,1,0-3.08h7.33V666h-9.87a9.15,9.15,0,0,0-9.23,8.33,9,9,0,0,0,8.92,9.55h71.85a3.91,3.91,0,0,0,3.91-3.91H235.25v0.88Z" transform="translate(-189.89 -582.34)" fill="#66cdcc"/>
    <path d="M267.24,582.34h-63.5a13.89,13.89,0,0,0-13.85,13.85V671.4A12,12,0,0,1,201.36,663h65.88a9.88,9.88,0,0,0,9.88-9.88V592.22A9.88,9.88,0,0,0,267.24,582.34Zm-63.68,29.38v-3.89a1.34,1.34,0,0,1,2.67,0v3.89A1.34,1.34,0,1,1,203.56,611.73ZM210,620.4a1.33,1.33,0,0,1-1.75.71,7.64,7.64,0,0,1-3.52-3,1.34,1.34,0,0,1,2.27-1.41,5,5,0,0,0,2.3,2A1.34,1.34,0,0,1,210,620.4Zm0.44-18.3a5,5,0,0,0-2.69,1.36,1.34,1.34,0,0,1-1.87-1.91,7.61,7.61,0,0,1,4.14-2.09A1.34,1.34,0,1,1,210.42,602.1Zm8,19.61h-3.89a1.34,1.34,0,0,1,0-2.67h3.89A1.34,1.34,0,0,1,218.42,621.71ZM219.94,602H216a1.34,1.34,0,0,1,0-2.67h3.89A1.34,1.34,0,1,1,219.94,602Zm8.22,19.67h-3.89a1.34,1.34,0,0,1,0-2.67h3.89A1.34,1.34,0,0,1,228.15,621.71ZM229.67,602h-3.89a1.34,1.34,0,0,1,0-2.67h3.89A1.34,1.34,0,1,1,229.67,602Zm8.22,19.67H234a1.34,1.34,0,0,1,0-2.67h3.89A1.34,1.34,0,0,1,237.89,621.71ZM239.4,602h-3.89a1.34,1.34,0,0,1,0-2.67h3.89A1.34,1.34,0,1,1,239.4,602Zm8.22,19.67h-3.89a1.34,1.34,0,0,1,0-2.67h3.89A1.34,1.34,0,0,1,247.62,621.71ZM249.14,602h-3.89a1.34,1.34,0,0,1,0-2.67h3.89A1.34,1.34,0,1,1,249.14,602Zm8.32,19.67h-4a1.34,1.34,0,0,1,0-2.67h3.89a1.37,1.37,0,0,1,1.37,1.32A1.3,1.3,0,0,1,257.45,621.71Zm2.7-20.51a1.33,1.33,0,0,1-1.61,1,5,5,0,0,0-1.19-.14H255a1.34,1.34,0,1,1,0-2.67h2.38a7.68,7.68,0,0,1,1.82.22A1.34,1.34,0,0,1,260.15,601.2Zm3.36,17.4a1.34,1.34,0,1,1-2.15-1.59,5,5,0,0,0,1-2.86,1.38,1.38,0,0,1,1.36-1.31A1.34,1.34,0,0,1,265,614.2,7.61,7.61,0,0,1,263.51,618.6Zm1.5-10.26a1.34,1.34,0,0,1-2.67,0V607a5,5,0,0,0-.41-2,1.34,1.34,0,1,1,2.45-1.06,7.6,7.6,0,0,1,.63,3v1.31Z" transform="translate(-189.89 -582.34)" fill="#66cdcc"/>
    <path d="M222.87,672.27a1.33,1.33,0,0,1,1.59,0l8.11,6v-12.5H214.22v13Z" transform="translate(-189.89 -582.34)" fill="#f4534e"/>
  </g>
</svg>
