<svg id="Layer_1" data-name="Layer 1" xmlns="http://www.w3.org/2000/svg" width="111.33" height="72.65" viewBox="0 0 111.33 72.65">
  <title>camera</title>
  <g>
    <path d="M986.16,375.07a5.94,5.94,0,0,1,3.3,1v-2.85a3.31,3.31,0,0,0-3.3-3.3H911.75v5.16h74.42Z" transform="translate(-878.14 -367.43)" fill="#f4534e"/>
    <path d="M905.77,367.43h-7.65a3.31,3.31,0,0,0-3.3,3.3v4.34h14.26v-4.34A3.31,3.31,0,0,0,905.77,367.43Z" transform="translate(-878.14 -367.43)" fill="#f4534e"/>
    <path d="M944.27,389.25a19.66,19.66,0,1,0,19.66,19.66A19.68,19.68,0,0,0,944.27,389.25Zm0,6a13.63,13.63,0,0,0-13.61,13.61,1.34,1.34,0,0,1-2.67,0,16.3,16.3,0,0,1,16.29-16.29A1.34,1.34,0,1,1,944.27,395.3Z" transform="translate(-878.14 -367.43)" fill="#66cdcc"/>
    <path d="M891.87,434h97.59V396.29H962.67a22.32,22.32,0,1,1-40.21,17.45,6.56,6.56,0,1,1,0-9.66,22.21,22.21,0,0,1,3.42-7.79H890.27a1.34,1.34,0,1,1,0-2.67H928a22.25,22.25,0,0,1,32.48,0h29V381a3.31,3.31,0,0,0-3.3-3.3H881.44a3.31,3.31,0,0,0-3.3,3.3v55.73a3.31,3.31,0,0,0,3.3,3.3H986.16a3.31,3.31,0,0,0,3.3-3.3v-0.08H891.87A1.34,1.34,0,1,1,891.87,434Z" transform="translate(-878.14 -367.43)" fill="#f4534e"/>
    <circle cx="39.91" cy="41.48" r="3.89" fill="#f4534e"/>
    <path d="M977.73,390.36h-10.4a1.34,1.34,0,1,1,0-2.67h10.4a1.88,1.88,0,0,0,0-3.76h-10.4a1.34,1.34,0,1,1,0-2.67h10.4A4.55,4.55,0,1,1,977.73,390.36Z" transform="translate(-878.14 -367.43)" fill="#fff"/>
  </g>
</svg>
