<svg id="Layer_1" data-name="Layer 1" xmlns="http://www.w3.org/2000/svg" width="99.65" height="125.98" viewBox="0 0 99.65 125.98">
  <title>form</title>
  <g>
    <g>
      <path d="M491.94,1338.46a10,10,0,0,0,1.37-5V1328H440.56v5.41a10,10,0,0,0,1.37,5h50Z" transform="translate(-417.11 -1314.64)" fill="#66cdcc"/>
      <path d="M515.43,1328H496v5.41a12.66,12.66,0,0,1-1,5h8.64a3,3,0,0,1,3,3v86.07a1.36,1.36,0,0,1-1.36,1.36,1.37,1.37,0,0,1-1.34-1.15,6.32,6.32,0,0,0-12.42,0,1.37,1.37,0,0,1-1.34,1.15h-0.29a1.37,1.37,0,0,1-1.34-1.15,6.32,6.32,0,0,0-12.42,0,1.37,1.37,0,0,1-1.34,1.15h-0.29a1.37,1.37,0,0,1-1.34-1.15,6.32,6.32,0,0,0-12.42,0,1.37,1.37,0,0,1-1.34,1.15H459.1a1.37,1.37,0,0,1-1.34-1.15,6.32,6.32,0,0,0-12.42,0,1.37,1.37,0,0,1-1.34,1.15h-0.29a1.37,1.37,0,0,1-1.34-1.15,6.32,6.32,0,0,0-12.42,0,1.37,1.37,0,0,1-1.34,1.15,1.36,1.36,0,0,1-1.36-1.36V1341.5a3,3,0,0,1,3-3h8.64a12.66,12.66,0,0,1-1-5V1328H418.44a1.34,1.34,0,0,0-1.34,1.34v109.95a1.34,1.34,0,0,0,1.34,1.34h97a1.34,1.34,0,0,0,1.34-1.34V1329.34A1.34,1.34,0,0,0,515.43,1328Z" transform="translate(-417.11 -1314.64)" fill="#66cdcc"/>
    </g>
    <path d="M488.76,1361H445.11a1.34,1.34,0,0,1,0-2.67h43.65A1.34,1.34,0,0,1,488.76,1361Z" transform="translate(-417.11 -1314.64)" fill="#66cdcc"/>
    <path d="M488.76,1371.44H445.11a1.34,1.34,0,0,1,0-2.67h43.65A1.34,1.34,0,0,1,488.76,1371.44Z" transform="translate(-417.11 -1314.64)" fill="#66cdcc"/>
    <path d="M488.76,1381.9H445.11a1.34,1.34,0,0,1,0-2.67h43.65A1.34,1.34,0,0,1,488.76,1381.9Z" transform="translate(-417.11 -1314.64)" fill="#66cdcc"/>
    <path d="M458.84,1392.36H445.11a1.34,1.34,0,0,1,0-2.67h13.73A1.34,1.34,0,0,1,458.84,1392.36Z" transform="translate(-417.11 -1314.64)" fill="#66cdcc"/>
    <path d="M455.88,1325.69H440.56v7.72a10.08,10.08,0,0,0,10.07,10.07h32.61a10.08,10.08,0,0,0,10.07-10.07v-7.72H478a1.34,1.34,0,0,1-1.34-1.34,9.72,9.72,0,1,0-19.44,0A1.34,1.34,0,0,1,455.88,1325.69Zm11.05-5.06a2.74,2.74,0,1,1-2.74,2.74A2.75,2.75,0,0,1,466.94,1320.63Z" transform="translate(-417.11 -1314.64)" fill="#f4534e"/>
  </g>
</svg>
