<svg id="Layer_1" data-name="Layer 1" xmlns="http://www.w3.org/2000/svg" width="100.28" height="84" viewBox="0 0 100.28 84">
  <title>ink</title>
  <g>
    <path d="M888.9,1156.45v-16.68h0v16.68a5.15,5.15,0,0,0,5.18,5.1h0A5.15,5.15,0,0,1,888.9,1156.45Z" transform="translate(-883.66 -1082.87)" fill="#f4534e"/>
    <path d="M906.49,1082.87a5.67,5.67,0,0,0-5.66,5.66v8.36a5.67,5.67,0,0,0,5.66,5.66h54.62a5.67,5.67,0,0,0,5.66-5.66v-8.36a5.67,5.67,0,0,0-5.66-5.66h-6.39v14.51a1.34,1.34,0,1,1-2.67,0v-14.51H941.67v14.51a1.34,1.34,0,1,1-2.67,0v-14.51H928.61v14.51a1.34,1.34,0,1,1-2.67,0v-14.51H915.55v14.51a1.34,1.34,0,1,1-2.67,0v-14.51h-6.39Z" transform="translate(-883.66 -1082.87)" fill="#66cdcc"/>
    <path d="M961.51,1142.44a6,6,0,0,1-11.82,0H917.06a3.87,3.87,0,0,1,.26,1.38,3.91,3.91,0,0,1-7.81,0,3.87,3.87,0,0,1,.26-1.38H891.58v14a2.47,2.47,0,0,0,2.51,2.43h79.44a2.47,2.47,0,0,0,2.51-2.43v-14H961.51Zm-62,10.8a1.37,1.37,0,1,1,1.37-1.37A1.4,1.4,0,0,1,899.49,1153.24Zm30.62-2.66a2.85,2.85,0,1,1,2.85-2.85A2.85,2.85,0,0,1,930.11,1150.58Zm11,4.62a2,2,0,1,1,2-2A2,2,0,0,1,941.09,1155.21Zm27.12-5a1.37,1.37,0,1,1,1.37-1.37A1.4,1.4,0,0,1,968.21,1150.18Z" transform="translate(-883.66 -1082.87)" fill="#f4534e"/>
    <path d="M970.09,1116.79h-8.53v0H940.84a1.5,1.5,0,1,1,0-3h20.72v-8.57l-0.44,0H906.49l-0.44,0v10.26a1.34,1.34,0,0,1-1.33,1.33h-7.2a13.87,13.87,0,0,0-13.85,13.85v27.68a8.55,8.55,0,0,0,8.54,8.54h83.21a8.55,8.55,0,0,0,8.54-8.54v-27.68A13.87,13.87,0,0,0,970.09,1116.79Zm8.61,39.66a5.15,5.15,0,0,1-5.18,5.1H894.08a5.15,5.15,0,0,1-5.18-5.1v-16.68h89.8v16.68Z" transform="translate(-883.66 -1082.87)" fill="#66cdcc"/>
  </g>
</svg>
