<svg id="Layer_1" data-name="Layer 1" xmlns="http://www.w3.org/2000/svg" width="118.44" height="118.42" viewBox="0 0 118.44 118.42">
  <title>magnifier</title>
  <path d="M759.16,455.38a6.8,6.8,0,0,0-2.55-4.93l-27.45-21.81a50.6,50.6,0,1,0-3.9,3.9L747.07,460a6.8,6.8,0,0,0,4.93,2.55h0.39A6.79,6.79,0,0,0,759.16,455.38Zm-65.52-72.73a7.42,7.42,0,0,1,5.87-2.15A24.79,24.79,0,0,0,699,363.4a1.34,1.34,0,1,1,2.48-1,27.32,27.32,0,0,1,.66,18.81,7.3,7.3,0,0,1,3.52,3.52,27.46,27.46,0,0,1,18.81.66,1.34,1.34,0,1,1-1,2.48,24.72,24.72,0,0,0-4.59-1.36,25,25,0,0,0-9.46,0,24.73,24.73,0,0,0-3.06.81,7.42,7.42,0,0,1-2.15,5.87,1.34,1.34,0,0,1-1.89,0l-8.63-8.63A1.33,1.33,0,0,1,693.64,382.65Zm-25,7a1.34,1.34,0,0,1,.94-0.39h7.18l0.13,0,2.43-2.43L677,384.52h-5.33a1.34,1.34,0,0,1-1.34-1.34v-5.31a1.34,1.34,0,0,1,2.67,0v4h4.55a1.34,1.34,0,0,1,.94.39l2.75,2.75,3.07-3.07-2.75-2.75a1.34,1.34,0,0,1,0-1.89l3.68-3.68v-4.75a1.34,1.34,0,0,1,2.67,0v5.3a1.33,1.33,0,0,1-.39.94l-3.12,3.12,5.88,5.88,12.43,12.43,5.88,5.88,3.12-3.12a1.34,1.34,0,0,1,.94-0.39H718a1.34,1.34,0,0,1,0,2.67h-4.75l-3.68,3.68a1.34,1.34,0,0,1-1.89,0l-2.75-2.75-3.07,3.07,2.75,2.75a1.34,1.34,0,0,1,.39.94v4.55h4a1.34,1.34,0,1,1,0,2.67h-5.31a1.34,1.34,0,0,1-1.34-1.34v-5.33l-2.36-2.36-2.43,2.43a1.24,1.24,0,0,1,0,.13v7.18a1.34,1.34,0,0,1-.39.94l-5.1,5.1v5.37a1.34,1.34,0,1,1-2.67,0v-5.92a1.34,1.34,0,0,1,.39-0.94l5.1-5.1v-4.2a14.55,14.55,0,0,1-18.59,0l9-9a1.34,1.34,0,0,0-1.89-1.89l-9,9a14.57,14.57,0,0,1,0-18.6h-4.2l-5.1,5.1a1.34,1.34,0,0,1-.94.39h-5.92a1.34,1.34,0,1,1,0-2.67h5.37ZM647.22,387l-0.27,0a1.34,1.34,0,0,1-1-1.58,46.2,46.2,0,0,1,7-16.61,46.72,46.72,0,0,1,5.67-6.87,1.34,1.34,0,1,1,1.89,1.89,43.87,43.87,0,0,0-9.38,13.92,43.56,43.56,0,0,0-2.55,8.22A1.34,1.34,0,0,1,647.22,387Zm77.05,40.61a46.48,46.48,0,0,1-75.9-15.37,1.34,1.34,0,0,1,2.48-1,43.81,43.81,0,0,0,81.16,0,1.34,1.34,0,0,1,2.48,1A46.17,46.17,0,0,1,724.27,427.65Z" transform="translate(-640.73 -344.14)" fill="#66cdcc"/>
</svg>
