<svg id="Layer_1" data-name="Layer 1" xmlns="http://www.w3.org/2000/svg" width="108.48" height="152.5" viewBox="0 0 108.48 152.5">
  <title>microscope</title>
  <g>
    <path d="M209.79,807.95a16.83,16.83,0,0,0-10.27,10.27l-4.07-4.07,10.27-10.27Z" transform="translate(-177.93 -793.54)" fill="#f4534e"/>
    <polygon points="84.2 66.75 73.93 77.02 79.12 82.21 89.39 71.94 84.2 66.75 84.2 66.75" fill="#f4534e"/>
    <path d="M207.9,796.64a3.06,3.06,0,0,1-.91,2.19l-1.26,1.27-1,.95-1,.94-10.27,10.27-0.94,1-1,1-1.27,1.26a3.1,3.1,0,0,1-4.38,0,3.09,3.09,0,0,1,0-4.38l16.59-16.59a3.09,3.09,0,0,1,4.38,0A3,3,0,0,1,207.9,796.64Z" transform="translate(-177.93 -793.54)" fill="#f4534e"/>
    <circle cx="49.12" cy="54.04" r="6.49" fill="#fff"/>
    <path d="M237.16,940.36a12.42,12.42,0,0,0-2.21-4.58,11.6,11.6,0,0,0-1-1.18,10.59,10.59,0,0,0-1.32-1.18,12.52,12.52,0,0,0-15.94.54,9.7,9.7,0,0,0-1.11,1.11,12.52,12.52,0,0,0-2.8,5.29h24.41Z" transform="translate(-177.93 -793.54)" fill="#f4534e"/>
    <circle cx="49.12" cy="54.04" r="6.49" fill="#f4534e"/>
    <path d="M227,832a15.58,15.58,0,0,0-13.64,8.08c-0.19.35-.37,0.7-0.53,1.07a4.87,4.87,0,0,0-.24.57,5.82,5.82,0,0,0-.3.79,7.09,7.09,0,0,0-.25.78,5.2,5.2,0,0,0-.17.68,15.14,15.14,0,0,0-.43,3.59,15.46,15.46,0,0,0,2.42,8.31,12.21,12.21,0,0,0,.79,1.14,12.8,12.8,0,0,0,.89,1.06,15.51,15.51,0,0,0,11.46,5,15.15,15.15,0,0,0,3.59-.43,12.19,12.19,0,0,0,1.46-.42,11.17,11.17,0,0,0,1.35-.54A15.55,15.55,0,0,0,227,832Zm0,24.73a9.17,9.17,0,1,1,9.17-9.17A9.18,9.18,0,0,1,227,856.74Z" transform="translate(-177.93 -793.54)" fill="#66cdcc"/>
    <path d="M209.79,807.95a16.83,16.83,0,0,0-10.27,10.27l-4.07-4.07,10.27-10.27Z" transform="translate(-177.93 -793.54)" fill="#f4534e"/>
    <path d="M283.89,900a2.51,2.51,0,1,0,0-5H245.26a2.51,2.51,0,1,0,0,5h38.63Z" transform="translate(-177.93 -793.54)" fill="#66cdcc"/>
    <path d="M227,918.67a31.38,31.38,0,0,1-14-59.45c-0.29-.34-0.56-0.7-0.81-1.06s-0.53-.75-0.77-1.14a18,18,0,0,1-2.64-9.44,17.14,17.14,0,0,1,.28-3.14c0.08-.53.2-1,0.33-1.56,0.1-.36.2-0.71,0.33-1l-0.38-.38a49.14,49.14,0,0,0,3.34,92.85c0.29-.39.6-0.76,0.92-1.12s0.7-.74,1.08-1.09a15.22,15.22,0,0,1,21.27.79,14,14,0,0,1,1,1.17,13,13,0,0,1,.82,1.17,49.56,49.56,0,0,0,35.88-32.5H254.36A31.28,31.28,0,0,1,227,918.67Z" transform="translate(-177.93 -793.54)" fill="#66cdcc"/>
    <path d="M248.77,946a1.5,1.5,0,1,0,0-3H201.12a1.5,1.5,0,1,0,0,3h47.65Z" transform="translate(-177.93 -793.54)" fill="#f4534e"/>
    <path d="M225.24,813.81a13.9,13.9,0,0,0-9.92-4.12h0a15.07,15.07,0,0,0-1.78.11,12,12,0,0,0-1.59.3,14.09,14.09,0,0,0-10.27,10.27,12.05,12.05,0,0,0-.3,1.59,15.05,15.05,0,0,0-.11,1.78h0a13.9,13.9,0,0,0,4.12,9.92l5.5,5.5a18.23,18.23,0,1,1,24.57,24.58h0l9.72,9.72,2.91-2.9,1-1,0.94-.95,10.27-10.27,1-.94,0.95-1,2.9-2.91Z" transform="translate(-177.93 -793.54)" fill="#f4534e"/>
  </g>
</svg>
