<svg id="Layer_1" data-name="Layer 1" xmlns="http://www.w3.org/2000/svg" width="122.15" height="111.57" viewBox="0 0 122.15 111.57">
  <title>old pen</title>
  <g>
    <path d="M700,1110.48a2.76,2.76,0,0,0,0,3.91l8.07,8.07a2.76,2.76,0,0,0,3.91-3.91l-8.07-8.07A2.83,2.83,0,0,0,700,1110.48Z" transform="translate(-638.63 -1069.72)" fill="#66cdcc"/>
    <g>
      <path d="M649.7,1164c-3.34,4.74-6.92,9.8-10.89,15.26a1.4,1.4,0,0,0,1.81,1.9c5.74-3.74,11-7.1,16-10.24Z" transform="translate(-638.63 -1069.72)" fill="#66cdcc"/>
      <path d="M702.75,1120.56l-0.29-.31a11.07,11.07,0,0,0-9.28-3.71c-3.46.34-7.07,2.29-10.73,5.79-10.74,10.26-19.4,22.67-31.18,39.41l7.55,7.55a1.26,1.26,0,0,1,.1.16c17.21-10.86,30-18.85,40.74-29,3.68-3.48,5.81-7,6.33-10.42A11.07,11.07,0,0,0,702.75,1120.56Z" transform="translate(-638.63 -1069.72)" fill="#66cdcc"/>
    </g>
    <path d="M759.82,1096.57l-5.23-8.29-5.24,8.29A6.19,6.19,0,1,0,759.82,1096.57Zm-6.3,6.55a1.33,1.33,0,0,1-1.89,0,4.47,4.47,0,0,1-.62-5.58,1.34,1.34,0,1,1,2.26,1.43,1.82,1.82,0,0,0,.25,2.27A1.34,1.34,0,0,1,753.52,1103.13Z" transform="translate(-638.63 -1069.72)" fill="#66cdcc"/>
    <circle cx="115.95" cy="12.62" r="2.25" fill="#66cdcc"/>
    <path d="M752.64,1071.66l-18.83,18.83a3.08,3.08,0,1,1-1.89-1.89l18.83-18.83-0.06-.06c-5.29,4.13-18.53,12.53-35.22,8.91a1.17,1.17,0,0,0-1.4,1.34c1.89,10.91-1.46,22.6-8.16,28.41l-0.05.05,8.12,8.12,0.05-.05c5.81-6.7,17.49-10.05,28.41-8.16a1.17,1.17,0,0,0,1.34-1.4c-3.61-16.66,4.79-29.92,8.92-35.22Z" transform="translate(-638.63 -1069.72)" fill="#f4534e"/>
  </g>
</svg>
