<svg id="Layer_1" data-name="Layer 1" xmlns="http://www.w3.org/2000/svg" width="111.65" height="111.73" viewBox="0 0 111.65 111.73">
  <title>pen in hand</title>
  <g>
    <path d="M727.77,637.2h5a7.08,7.08,0,1,0,0-14.16h-56.4a7.08,7.08,0,1,0,0,14.16h41.35a1.34,1.34,0,0,1,0,2.67H691A7.08,7.08,0,1,0,691,654h22.66a1.34,1.34,0,0,1,0,2.67H695.83a7.08,7.08,0,0,0,0,14.16h11.82a1.34,1.34,0,0,1,0,2.67h-5.23a7.08,7.08,0,0,0,.23,14.15h25.12a7.08,7.08,0,1,0,0-14.16,1.34,1.34,0,0,1,0-2.67,7.08,7.08,0,1,0,0-14.16,1.34,1.34,0,0,1,0-2.67,7.08,7.08,0,1,0,0-14.16A1.34,1.34,0,0,1,727.77,637.2Zm-45.51-2a1.34,1.34,0,0,1-1.89-1.89,4.62,4.62,0,0,0,0-6.54,1.34,1.34,0,1,1,1.89-1.89A7.29,7.29,0,0,1,682.27,635.22Z" transform="translate(-644.65 -577.2)" fill="#66cdcc"/>
    <path d="M666.62,666.77l0.06,0.06,0.06,0.05a7,7,0,0,0,9.89-.15L687.36,656a9.74,9.74,0,0,1-3.07-16.13h-0.5l-17,17A7,7,0,0,0,666.62,666.77Z" transform="translate(-644.65 -577.2)" fill="#f4534e"/>
    <path d="M700,620.37l3.84-3.84a9.81,9.81,0,0,1-4.15-3.41l-7.25,7.25H700Z" transform="translate(-644.65 -577.2)" fill="#f4534e"/>
    <path d="M686.07,663.79a9.69,9.69,0,0,1,.91-4.11l-10.57,10.57a4,4,0,0,0-1,3.87L662,679.62l-8-8,5.51-13.48a3.89,3.89,0,0,0,3.74-1l17.27-17.27h-4a9.7,9.7,0,0,1-3-.49l-15.13,15.13h0l-0.16.16a1.94,1.94,0,0,0-.52,1l-12.85,31.44a1.34,1.34,0,0,0,1.74,1.74l31.64-12.93a1.32,1.32,0,0,0,.32-0.2,2,2,0,0,0,.39-0.3l8-8A9.69,9.69,0,0,1,686.07,663.79Z" transform="translate(-644.65 -577.2)" fill="#f4534e"/>
    <path d="M753.1,585.69l-5.29-5.29a10.91,10.91,0,0,0-15.43,0L728,584.82a5.67,5.67,0,0,1,3.16,1.59l11.71,11.71a1.17,1.17,0,0,1-1.66,1.66l-11.71-11.71a3.35,3.35,0,0,0-4.59-.15l-7.15,7.15-0.07.08-0.64.64a9.72,9.72,0,0,1,.43,2.85v8.95a9.69,9.69,0,0,1-11,9.66l-3.13,3.13h29.53a9.83,9.83,0,0,1,1,.05l11.74-11.74,0.07-.08,7.48-7.48A10.91,10.91,0,0,0,753.1,585.69Z" transform="translate(-644.65 -577.2)" fill="#f4534e"/>
    <path d="M707.68,591.55a7.09,7.09,0,0,0-7.08,7.08v8.95a7.08,7.08,0,0,0,14.16,0v-8.95A7.09,7.09,0,0,0,707.68,591.55Zm5.16,13.83a1.33,1.33,0,0,1-1.89,0,4.62,4.62,0,0,0-6.54,0,1.34,1.34,0,0,1-1.89-1.89,7.29,7.29,0,0,1,10.31,0A1.33,1.33,0,0,1,712.84,605.38Z" transform="translate(-644.65 -577.2)" fill="#66cdcc"/>
  </g>
</svg>
