<svg id="Layer_1" data-name="Layer 1" xmlns="http://www.w3.org/2000/svg" width="119.15" height="119.13" viewBox="0 0 119.15 119.13">
  <title>pencil corpse</title>
  <g>
    <path d="M484.68,875.21l-9.35-1.07a5.21,5.21,0,0,1-4.26-3.27l-8-20.41a4.42,4.42,0,0,0-7-1L416.54,889h0l-0.24.24a2.93,2.93,0,0,0-.85,2.3L406.06,929a1.34,1.34,0,0,0,1.3,1.66,1.37,1.37,0,0,0,.33,0L445,921.27a3,3,0,0,0,2.44-.85l20.2-20.2h0l19.05-19.05A3.51,3.51,0,0,0,484.68,875.21ZM456.62,899.9l-12.77,12.79a6,6,0,0,0-1.33,6.47l-14.14,3.55L414,908.37l3.55-14.16A5.86,5.86,0,0,0,424,893l9.65-9.64a1.76,1.76,0,1,1,2.49,2.49l-6.76,6.75a10.6,10.6,0,0,0-.23,14.89l0.09,0.09,0.08,0.08a10.4,10.4,0,0,0,14.68,0l4-4,0-.05,6.15-6.15A1.76,1.76,0,1,1,456.62,899.9Z" transform="translate(-406.02 -811.56)" fill="#66cdcc"/>
    <path d="M513.28,827.2H499.41a1.34,1.34,0,0,1,0-2.67h10.12v-1.07a11.9,11.9,0,0,0-23.79,0v8.11a0.75,0.75,0,0,1,0,.2,1.3,1.3,0,0,1-.35.74l-19,19,7.23,18.34a2.54,2.54,0,0,0,2.08,1.6l7.52,0.86,19.55-19.55a1.28,1.28,0,0,1,1-1.75h0a1.26,1.26,0,0,1,.22,0h9.34A11.9,11.9,0,1,0,513.28,827.2Z" transform="translate(-406.02 -811.56)" fill="#f4534e"/>
  </g>
</svg>
