<svg id="Layer_1" data-name="Layer 1" xmlns="http://www.w3.org/2000/svg" width="101.54" height="84.13" viewBox="0 0 101.54 84.13">
  <title>pencil sharpener</title>
  <g>
    <path d="M1178.69,1113.26a2.09,2.09,0,1,1-2.09-2.09A2.1,2.1,0,0,1,1178.69,1113.26Z" transform="translate(-1116.65 -1082.8)" fill="#66cdcc"/>
    <path d="M1148.07,1123.78a1.34,1.34,0,1,1,0-2.67h70.11V1106.3h-70.83a11.1,11.1,0,0,0,0,22.21h70.83v-4.72h-70.11Zm24.08-12.25a4.46,4.46,0,0,1,1-1.52,4.7,4.7,0,0,1,3.48-1.53,4.37,4.37,0,0,1,1.15.15,4.53,4.53,0,0,1,1.62.75,4.76,4.76,0,1,1-7.53,3.87A4.65,4.65,0,0,1,1172.16,1111.54Z" transform="translate(-1116.65 -1082.8)" fill="#66cdcc"/>
    <path d="M1142.82,1154.67h-21.71a7,7,0,0,1-4.46-1.58v9.39a4.46,4.46,0,0,0,4.46,4.45h21.71v-12.26Z" transform="translate(-1116.65 -1082.8)" fill="#f4534e"/>
    <path d="M1190,1154a26,26,0,0,0-44.61-.15,1.32,1.32,0,0,1,.1.47v9.73a29,29,0,0,1,14.17-9.32V1149a1.34,1.34,0,1,1,2.67,0v5.08a28.56,28.56,0,0,1,4.72-.5v-6.27a1.34,1.34,0,0,1,2.67,0v6.34a28.47,28.47,0,0,1,4.72.76v-4.57a1.34,1.34,0,0,1,2.67,0v5.37a29,29,0,0,1,12.88,9.07v-10a1.27,1.27,0,0,1,.05-0.26Z" transform="translate(-1116.65 -1082.8)" fill="#f4534e"/>
    <path d="M1213.38,1154.67h-20.71v12.26h20.7a4.46,4.46,0,0,0,4.46-4.45v-9.39A7,7,0,0,1,1213.38,1154.67Z" transform="translate(-1116.65 -1082.8)" fill="#f4534e"/>
    <path d="M1147.36,1131.17a13.78,13.78,0,0,1,0-27.55h70.47v-16.36a4.46,4.46,0,0,0-4.45-4.46h-21a28.7,28.7,0,0,1-49.5,0h-21.8a4.46,4.46,0,0,0-4.46,4.46v60.29a4.46,4.46,0,0,0,4.46,4.45h22.3a28.71,28.71,0,0,1,48.49,0h21.48a4.45,4.45,0,0,0,4.45-4.45v-16.37h-70.47Z" transform="translate(-1116.65 -1082.8)" fill="#f4534e"/>
  </g>
</svg>
