<svg id="Layer_1" data-name="Layer 1" xmlns="http://www.w3.org/2000/svg" width="124.89" height="131.39" viewBox="0 0 124.89 131.39">
  <title>pencil and paper</title>
  <g>
    <path d="M513.42,1599.35a1.34,1.34,0,0,0-1.45-.29l-33.56,13.72a1.33,1.33,0,0,0-.6.49,2,2,0,0,0-.16.13l-14.07,14.07h0l-42,42-0.07.09-5.07,5.07a15.36,15.36,0,1,0,21.72,21.72l1.85-1.85a6,6,0,0,1-3.3-1.68l-12.27-12.27a1.23,1.23,0,0,1,1.74-1.74l12.27,12.27a3.51,3.51,0,0,0,4.82.16l6.7-6.7,0.07-.09,49.19-49.19h0l0.16-.16a2,2,0,0,0,.14-0.17,1.33,1.33,0,0,0,.51-0.61l13.7-33.52A1.34,1.34,0,0,0,513.42,1599.35Zm-15.17,32.21a4.09,4.09,0,0,0-4.22,1l-34.3,34.29a1.23,1.23,0,1,1-1.74-1.74l32.29-32.28a7.38,7.38,0,0,0,.16-10.37l-0.06-.06-0.06-.06a7.38,7.38,0,0,0-10.37.16l-9.71,9.71,0,0-11.35,11.35a1.23,1.23,0,1,1-1.74-1.74l23-23a4.2,4.2,0,0,0,1-4.26l14.26-5.83,8.63,8.6Z" transform="translate(-405.83 -1569.47)" fill="#66cdcc"/>
    <path d="M525,1575.24H490.73l-1.1-3.58a3.1,3.1,0,0,0-3.87-2l-18.31,5.63H443.61a5.77,5.77,0,0,0-5.77,5.77v3.33L408,1593.51a3.1,3.1,0,0,0-2,3.87l19.76,64.29,13.46-13.46V1581a4.43,4.43,0,0,1,4.43-4.43H525a4.43,4.43,0,0,1,4.43,4.43v102.76a4.43,4.43,0,0,1-4.43,4.43H450l-4.86,4.86-3.25,3.25-1.11,1.11,25.65-7.88H525a5.77,5.77,0,0,0,5.77-5.77V1581A5.77,5.77,0,0,0,525,1575.24Z" transform="translate(-405.83 -1569.47)" fill="#f4534e"/>
  </g>
</svg>
