<svg id="Layer_1" data-name="Layer 1" xmlns="http://www.w3.org/2000/svg" width="109.41" height="143.99" viewBox="0 0 109.41 143.99">
  <title>pipette</title>
  <g>
    <path d="M986.77,799.52a8.17,8.17,0,0,0-11.55,0l-6.15,6.15a19,19,0,0,0-19.72,4.45l-13,13h0l-3.3,3.3-2.44-2.44a1.34,1.34,0,0,0-1.89,1.89l2.44,2.44-39.09,39.09a19,19,0,0,0-4.43,19.83L886,888.9a5.6,5.6,0,0,0,0,7.9l3.48,3.48a5.6,5.6,0,0,0,7.9,0l1.68-1.68a19,19,0,0,0,19.89-4.41L958,855.09l2.44,2.44a1.34,1.34,0,0,0,1.89-1.89l-2.44-2.44,16.26-16.26a19,19,0,0,0,4.45-19.72l6.15-6.15A8.17,8.17,0,0,0,986.77,799.52ZM917,892.29a16.25,16.25,0,0,1-18.36,3.25l-2,2h0l-1.14,1.14a3,3,0,0,1-4.27,0L887.6,895a3,3,0,0,1,0-4.27l2.65-2.65h0l0.51-.51A16.31,16.31,0,0,1,894,869.25l39.09-39.09,23,23Z" transform="translate(-879.76 -797.13)" fill="#66cdcc"/>
    <path d="M894,873.44a13.55,13.55,0,0,0-.18,14.67l-4.73,4.73,4.34,4.34,4.73-4.73A13.57,13.57,0,0,0,915,890.53l17.09-17.09H894Z" transform="translate(-879.76 -797.13)" fill="#f4534e"/>
    <path d="M899.91,924.38l-9.22-14.59-9.23,14.59A10.91,10.91,0,1,0,899.91,924.38ZM887.27,936a1.33,1.33,0,0,1-.94.39,1.35,1.35,0,0,1-1-.39,8.25,8.25,0,0,1-1.14-10.28,1.33,1.33,0,1,1,2.26,1.42,5.77,5.77,0,0,0-.81,2.14,5.6,5.6,0,0,0,1.58,4.83A1.34,1.34,0,0,1,887.27,936Z" transform="translate(-879.76 -797.13)" fill="#f4534e"/>
  </g>
</svg>
