<svg id="Layer_1" data-name="Layer 1" xmlns="http://www.w3.org/2000/svg" width="109.26" height="89.87" viewBox="0 0 109.26 89.87">
  <title>portfolio</title>
  <g>
    <path d="M466.94,1146.48c-25.57,0-47.28-12-54.63-28.63v42.26a8.37,8.37,0,0,0,8.36,8.36h92.54a8.37,8.37,0,0,0,8.36-8.36v-42.26C514.21,1134.43,492.51,1146.48,466.94,1146.48Z" transform="translate(-412.31 -1078.59)" fill="#66cdcc"/>
    <path d="M412.31,1095.7v9.79c0,21.13,24.51,38.32,54.63,38.32s54.63-17.19,54.63-38.32v-9.79H412.31Zm5.41,13.61a1.34,1.34,0,0,1-1.32-1.13,26.69,26.69,0,0,1-.32-4.13,1.34,1.34,0,1,1,2.67,0,24,24,0,0,0,.29,3.72,1.34,1.34,0,0,1-1.11,1.53Zm4,9.17a1.32,1.32,0,0,1-.67.18,1.34,1.34,0,0,1-1.16-.67,30.3,30.3,0,0,1-1.84-3.76,1.34,1.34,0,0,1,2.48-1,27.39,27.39,0,0,0,1.67,3.42A1.34,1.34,0,0,1,421.74,1118.47Zm6.53,7.54a1.33,1.33,0,0,1-1.89.05,38.72,38.72,0,0,1-2.86-3,1.34,1.34,0,1,1,2-1.74,36.12,36.12,0,0,0,2.66,2.79A1.34,1.34,0,0,1,428.27,1126Zm8.18,5.72a1.33,1.33,0,0,1-1.83.47c-1.19-.7-2.35-1.45-3.45-2.23a1.34,1.34,0,0,1,1.54-2.18c1,0.73,2.14,1.44,3.27,2.11A1.34,1.34,0,0,1,436.46,1131.73Zm9.15,4a1.33,1.33,0,0,1-1.71.8c-1.29-.47-2.57-1-3.8-1.53a1.34,1.34,0,0,1,1.09-2.44c1.17,0.52,2.39,1,3.62,1.46A1.34,1.34,0,0,1,445.61,1135.74Zm9.69,2.44a1.34,1.34,0,0,1-1.31,1.08l-0.25,0c-1.35-.26-2.69-0.56-4-0.89a1.34,1.34,0,0,1,.66-2.59c1.24,0.32,2.53.61,3.82,0.86A1.34,1.34,0,0,1,455.3,1138.18Zm8.61,2.23h-0.06c-1.35-.06-2.72-0.16-4.06-0.29a1.34,1.34,0,1,1,.26-2.66c1.3,0.13,2.62.22,3.91,0.28A1.34,1.34,0,0,1,463.91,1140.41Zm-2.38-25.08a1.34,1.34,0,1,1,2.67,0,2.73,2.73,0,1,0,5.46,0,1.34,1.34,0,1,1,2.67,0A5.4,5.4,0,1,1,461.53,1115.33Zm12.49,24.8c-1.35.13-2.72,0.23-4.07,0.29h-0.06a1.34,1.34,0,0,1-.05-2.67c1.3-.05,2.61-0.15,3.91-0.28A1.34,1.34,0,1,1,474,1140.13Zm10-1.76c-1.3.33-2.64,0.63-4,.89l-0.25,0a1.34,1.34,0,0,1-.25-2.65c1.29-.25,2.58-0.53,3.82-0.85A1.34,1.34,0,1,1,484.07,1138.36Zm9.66-3.33c-1.23.54-2.5,1.06-3.8,1.53a1.34,1.34,0,1,1-.91-2.51c1.24-.45,2.46-0.94,3.62-1.46A1.34,1.34,0,1,1,493.72,1135Zm8.93-5c-1.1.78-2.26,1.53-3.46,2.22a1.34,1.34,0,1,1-1.35-2.3c1.13-.66,2.23-1.37,3.27-2.11A1.34,1.34,0,0,1,502.65,1130Zm7.66-6.9a38.92,38.92,0,0,1-2.86,3,1.34,1.34,0,1,1-1.83-1.94,36.6,36.6,0,0,0,2.66-2.79A1.34,1.34,0,1,1,510.31,1123.11Zm5.46-8.83a30.17,30.17,0,0,1-1.84,3.75,1.34,1.34,0,1,1-2.31-1.34,27.53,27.53,0,0,0,1.68-3.42A1.34,1.34,0,0,1,515.77,1114.28Zm1.7-6.05a1.34,1.34,0,0,1-1.32,1.13l-0.21,0a1.34,1.34,0,0,1-1.11-1.53,24.07,24.07,0,0,0,.3-3.77,1.34,1.34,0,1,1,2.67,0A26.77,26.77,0,0,1,517.47,1108.23Z" transform="translate(-412.31 -1078.59)" fill="#66cdcc"/>
    <g>
      <path d="M447.94,1099.1a2.58,2.58,0,0,0,2.58-2.58v-0.83h-5.16v0.83A2.58,2.58,0,0,0,447.94,1099.1Z" transform="translate(-412.31 -1078.59)" fill="#66cdcc"/>
      <path d="M485.93,1099.1a2.58,2.58,0,0,0,2.58-2.58v-0.83h-5.16v0.83A2.58,2.58,0,0,0,485.93,1099.1Z" transform="translate(-412.31 -1078.59)" fill="#66cdcc"/>
      <path d="M450.52,1093v-2.47a6.63,6.63,0,0,1,6.43-6.8h20a6.63,6.63,0,0,1,6.43,6.8V1093h5.16v-2.47a11.79,11.79,0,0,0-11.59-12h-20a11.79,11.79,0,0,0-11.59,12V1093h5.16Z" transform="translate(-412.31 -1078.59)" fill="#66cdcc"/>
    </g>
  </g>
</svg>
