<svg id="Layer_1" data-name="Layer 1" xmlns="http://www.w3.org/2000/svg" width="108.52" height="114.24" viewBox="0 0 108.52 114.24">
  <title>quill</title>
  <g>
    <path d="M1200.55,1330.62l17.7-17.7a98.81,98.81,0,0,0-18.87,5.46Z" transform="translate(-1111.41 -1312.91)" fill="#66cdcc"/>
    <path d="M1187.64,1347.3l22.06-2.11a99.65,99.65,0,0,0,10.23-30.18Z" transform="translate(-1111.41 -1312.91)" fill="#66cdcc"/>
    <path d="M1184.67,1350.27l-5.15,5.15,25.64-2.45c1-1.63,2-3.27,3-4.94Z" transform="translate(-1111.41 -1312.91)" fill="#66cdcc"/>
    <path d="M1176.56,1358.38l-25.07,25.07a1.34,1.34,0,0,1-1.89-1.89l10.31-10.31-2.16-22.66a103.42,103.42,0,0,0-23.52,50L1111.8,1421a1.34,1.34,0,1,0,1.89,1.89l22.45-22.45c20.22-3.75,39-13.82,54.32-29.14a109,109,0,0,0,12.83-15.46Z" transform="translate(-1111.41 -1312.91)" fill="#66cdcc"/>
    <path d="M1202.46,1413.24c-41.69,12.61-48.49,11.65-49.57,10.9,0.12-.44,1-2.25,7.9-7,2.67-1.83,5-3.79,4.1-5.74-0.65-1.37-1.74-3.68-27.7,2.55-5.7,1.37-11.37,2.85-15.84,4.07l-3.8,3.8c20-5.61,40.63-10.24,44.62-9.26a14.45,14.45,0,0,1-2.89,2.38c-7.37,5.05-9.93,8-8.84,10.32,0.38,0.8.9,1.88,4.69,1.88,5.58,0,18.27-2.34,48.11-11.36A1.34,1.34,0,0,0,1202.46,1413.24Z" transform="translate(-1111.41 -1312.91)" fill="#f4534e"/>
    <path d="M1162.35,1368.82l35.79-35.79a1.27,1.27,0,0,1-.07-0.23l-1.28-13.35a106.73,106.73,0,0,0-33.07,22.65c-1.23,1.23-2.41,2.49-3.57,3.77Z" transform="translate(-1111.41 -1312.91)" fill="#66cdcc"/>
  </g>
</svg>
