<svg id="Layer_1" data-name="Layer 1" xmlns="http://www.w3.org/2000/svg" width="116.03" height="115.38" viewBox="0 0 116.03 115.38">
  <title>roller</title>
  <g>
    <path d="M522.44,446.48L502.06,426.1a1.37,1.37,0,0,0-1.89,0l-3.7,3.7-4.67-4.67a7.8,7.8,0,0,1-.58-10.42c18.75-23.29,21.06-52.7,5.37-68.39a2,2,0,0,0-2.83,0L490.11,350a2,2,0,0,0,2.83,2.83l2.18-2.18c12.7,14.58,9.87,40.61-7,61.59A11.79,11.79,0,0,0,489,428l4.67,4.67-3.7,3.7a1.34,1.34,0,0,0,0,1.89l20.39,20.39A8.57,8.57,0,0,0,522.44,446.48Z" transform="translate(-408.92 -345.73)" fill="#f4534e"/>
    <path d="M494.09,362.07l-12.85-12.85a6.14,6.14,0,0,0-8.68,0l-12.39,12.39a1.29,1.29,0,0,0-.17.12l-47.09,46.54a13.57,13.57,0,0,0-4,9.59v13a6.2,6.2,0,0,0,12.39,0v-5.22l4.6,4.6a6.09,6.09,0,0,0,3.34,1.7v19.77a7.15,7.15,0,0,0,14.29,0V421.29l5.18-5.18a7.07,7.07,0,0,0,13.57-2.8V402.54l31.8-31.8A6.14,6.14,0,0,0,494.09,362.07Zm-23.61-3.44-10.86,10.86v43.81a4.39,4.39,0,0,1-5.25,4.32l-0.3-.08a4.34,4.34,0,0,1-.48-0.15c-0.13-.05-0.24-0.12-0.36-0.18s-0.23-.12-0.34-0.19a4.39,4.39,0,0,1-.39-0.28l-0.23-.19a4.4,4.4,0,0,1-.38-0.4l-0.13-.16a4.39,4.39,0,0,1-.34-0.51l-0.06-.12a4.34,4.34,0,0,1-.28-0.62l0-.06a4.33,4.33,0,0,1-.18-0.73h0a4.35,4.35,0,0,1-.07-0.65V399.23a5,5,0,0,0-9.94,0v52.49a4.48,4.48,0,1,1-9,0V422.62a6.64,6.64,0,0,0-13.27,0v8.25a3.53,3.53,0,0,1-7.05,0v-13a10.62,10.62,0,0,1,.06-1.14v0a10.77,10.77,0,0,1,.18-1.1h0a10.88,10.88,0,0,1,3-5.43l31-30.63,22.79-22.79A1.34,1.34,0,0,1,470.48,358.63Z" transform="translate(-408.92 -345.73)" fill="#f4534e"/>
  </g>
</svg>
