<svg id="Layer_1" data-name="Layer 1" xmlns="http://www.w3.org/2000/svg" width="109.89" height="109.65" viewBox="0 0 109.89 109.65">
  <title>scissors</title>
  <g>
    <path d="M218.34,1615.47a2.26,2.26,0,1,0,1.6.66A2.26,2.26,0,0,0,218.34,1615.47Z" transform="translate(-179.7 -1579.01)" fill="#66cdcc"/>
    <path d="M229,1610.22l-27.6-27.6a12.33,12.33,0,0,0-17.43,0l-0.75.75a12.27,12.27,0,0,0-3.52,7.3Z" transform="translate(-179.7 -1579.01)" fill="#66cdcc"/>
    <path d="M289.59,1645.31a15.44,15.44,0,0,0-16.23-15.44,0.12,0.12,0,0,1-.07,0h0a15.54,15.54,0,0,0-3.62.62c-11.52,2.67-17.18-4.08-19.26-7.56-2.07,2.72-5.8,9-3.55,17l16.36,16.36A15.47,15.47,0,0,0,289.59,1645.31Zm-8.48,7a10.06,10.06,0,1,1,0-14.23A10.06,10.06,0,0,1,281.11,1652.31Z" transform="translate(-179.7 -1579.01)" fill="#f4534e"/>
    <path d="M257.18,1662.25l-16.36-16.36c-7.85-2.22-14.2,1.5-16.94,3.55,3.48,2.09,10.22,7.73,7.57,19.17a15.83,15.83,0,0,0-.65,3.7v0s0,0,0,.07A15.46,15.46,0,1,0,257.18,1662.25Zm-4,17.93a10.06,10.06,0,1,1,0-14.23A10.06,10.06,0,0,1,253.22,1680.19Z" transform="translate(-179.7 -1579.01)" fill="#f4534e"/>
    <path d="M245.24,1626.46l-10.14-10.14-1.34-1.34-54.06-21.43a12.26,12.26,0,0,0,3.51,7.26l19.49,19.49,40.78,16.17A21.14,21.14,0,0,1,245.24,1626.46Zm-23.42-5.23a4.93,4.93,0,1,1,0-7A4.92,4.92,0,0,1,221.82,1621.22Z" transform="translate(-179.7 -1579.01)" fill="#66cdcc"/>
    <path d="M223.24,1640.82l3.7,3.7a21.22,21.22,0,0,1,10.52-1.93l-2.8-6.76-27.18-10.78,15.76,15.76h0Z" transform="translate(-179.7 -1579.01)" fill="#66cdcc"/>
  </g>
</svg>
