<svg id="Layer_1" data-name="Layer 1" xmlns="http://www.w3.org/2000/svg" width="142.43" height="108.38" viewBox="0 0 142.43 108.38">
  <title>spray paint</title>
  <g>
    <path d="M269.35,1329.92a4.26,4.26,0,1,0,0,6h0A4.26,4.26,0,0,0,269.35,1329.92Z" transform="translate(-162.2 -1328.68)" fill="#66cdcc"/>
    <g>
      <path d="M295.15,1363a1.33,1.33,0,0,1-.94-0.39l-8.49-8.49a1.34,1.34,0,0,1,1.89-1.89l8.49,8.49A1.34,1.34,0,0,1,295.15,1363Z" transform="translate(-162.2 -1328.68)" fill="#f4534e"/>
      <path d="M281,1371.18a1.34,1.34,0,0,1-1.3-1l-3.4-14.19a1.34,1.34,0,0,1,2.6-.62l3.4,14.19a1.34,1.34,0,0,1-1,1.61A1.32,1.32,0,0,1,281,1371.18Z" transform="translate(-162.2 -1328.68)" fill="#f4534e"/>
      <path d="M303.29,1348.85a1.33,1.33,0,0,1-.31,0l-14.19-3.4a1.34,1.34,0,0,1,.62-2.6l14.19,3.4A1.34,1.34,0,0,1,303.29,1348.85Z" transform="translate(-162.2 -1328.68)" fill="#f4534e"/>
    </g>
    <path d="M208.31,1357l-21,21L199,1389.68a14.84,14.84,0,0,0,21-21Z" transform="translate(-162.2 -1328.68)" fill="#f4534e"/>
    <path d="M266.8,1363.79a24.37,24.37,0,0,0-31.32-31.32Z" transform="translate(-162.2 -1328.68)" fill="#66cdcc"/>
    <path d="M262.2,1370.39a1.34,1.34,0,0,1,1.89,0,2,2,0,0,0,2.77,0,2,2,0,0,0,0-2.77l-35.2-35.2a2,2,0,0,0-2.77,0,2,2,0,0,0,0,2.77L253,1359.3a1.34,1.34,0,0,1-1.89,1.89l-23.71-23.71c-0.22.21-.46,0.4-0.68,0.62L210,1354.85l12,12a17.51,17.51,0,0,1-24.77,24.77l-12-12-17.4,17.4,11.72,11.72a1.34,1.34,0,1,1-1.89,1.89l-12.09-12.09a2,2,0,0,0-2.77,0,2,2,0,0,0,0,2.77l35.2,35.2a2,2,0,0,0,2.77,0,2,2,0,0,0,0-2.77,1.34,1.34,0,0,1,1.44-2.18l59-59c0.25-.25.47-0.52,0.71-0.78A1.33,1.33,0,0,1,262.2,1370.39Z" transform="translate(-162.2 -1328.68)" fill="#66cdcc"/>
  </g>
</svg>
