<svg id="Layer_1" data-name="Layer 1" xmlns="http://www.w3.org/2000/svg" width="127.71" height="96.62" viewBox="0 0 127.71 96.62">
  <title>typewriter</title>
  <g>
    <path d="M1000.47,1410.3l-14.9-42.76a1.34,1.34,0,0,0-1.26-.9H889.73a1.34,1.34,0,0,0-1.26.9l-14.9,42.76a7.11,7.11,0,0,0,6.71,9.45H993.75A7.11,7.11,0,0,0,1000.47,1410.3Zm-34.85-19.24a2.59,2.59,0,1,1-2.59,2.59A2.6,2.6,0,0,1,965.62,1391.06Zm-9.53-12.2a2.59,2.59,0,1,1-2.59,2.59A2.6,2.6,0,0,1,956.09,1378.85Zm-9.54,12.2a2.59,2.59,0,1,1-2.59,2.59A2.6,2.6,0,0,1,946.55,1391.06Zm-9.53-12.2a2.59,2.59,0,1,1-2.59,2.59A2.6,2.6,0,0,1,937,1378.85Zm-9.53,12.2a2.59,2.59,0,1,1-2.59,2.59A2.6,2.6,0,0,1,927.48,1391.06Zm-9.54-12.2a2.59,2.59,0,1,1-2.59,2.59A2.6,2.6,0,0,1,917.95,1378.85Zm-9.53,12.2a2.59,2.59,0,1,1-2.59,2.59A2.6,2.6,0,0,1,908.41,1391.06Zm72.93,18.24H892.69a1.34,1.34,0,0,1,0-2.67h88.66A1.34,1.34,0,1,1,981.34,1409.29Z" transform="translate(-873.16 -1323.13)" fill="#f4534e"/>
    <rect x="25.41" y="29.68" width="76.9" height="6.9" rx="1.34" ry="1.34" fill="#f4534e"/>
    <path d="M892.45,1348.37a3.66,3.66,0,0,0-3.65,3.65v8.47a3.65,3.65,0,0,0,7.3,0V1352A3.66,3.66,0,0,0,892.45,1348.37Z" transform="translate(-873.16 -1323.13)" fill="#f4534e"/>
    <path d="M981.58,1348.37a3.66,3.66,0,0,0-3.65,3.65v8.47a3.65,3.65,0,0,0,7.3,0V1352A3.66,3.66,0,0,0,981.58,1348.37Z" transform="translate(-873.16 -1323.13)" fill="#f4534e"/>
    <path d="M974.13,1361.86H899.9a1.34,1.34,0,0,0,0,2.67h74.23A1.34,1.34,0,1,0,974.13,1361.86Z" transform="translate(-873.16 -1323.13)" fill="#66cdcc"/>
    <path d="M989.29,1353.92a1.34,1.34,0,0,0-1.34,1.34v2a1.34,1.34,0,0,0,1.34,1.34A2.34,2.34,0,0,0,989.29,1353.92Z" transform="translate(-873.16 -1323.13)" fill="#f4534e"/>
    <path d="M884.66,1353.92a2.34,2.34,0,0,0,0,4.69,1.34,1.34,0,0,0,1.34-1.34v-2A1.34,1.34,0,0,0,884.66,1353.92Z" transform="translate(-873.16 -1323.13)" fill="#f4534e"/>
    <path d="M974.13,1323.13H899.9a1.34,1.34,0,0,0-1.34,1.34v24.75a1.34,1.34,0,0,0,1.34,1.34h74.23a1.34,1.34,0,0,0,1.34-1.34v-24.75A1.34,1.34,0,0,0,974.13,1323.13Zm-26.32,13.6H926.22a1.34,1.34,0,1,1,0-2.67h21.58A1.34,1.34,0,0,1,947.81,1336.73Z" transform="translate(-873.16 -1323.13)" fill="#66cdcc"/>
  </g>
</svg>
